<svg xmlns="http://www.w3.org/2000/svg" width="14" height="15" fill="none"><path fill="#d51c1e" d="M9.819 6.588 7.37 4.81a.363.363 0 0 0-.426 0L4.497 6.588a.363.363 0 0 0-.131.406L5.3 9.87c.049.15.188.25.345.25h3.026a.362.362 0 0 0 .344-.25l.935-2.877a.363.363 0 0 0-.132-.406Z"/><path fill="#d51c1e" d="M7 .431a7 7 0 1 0 0 14 7 7 0 0 0 0-14Zm4.695 10.41-2.039-.059-1.282 2.399c-.057.072-.513.638-1.287.644-.903.008-1.392-.754-1.418-.796L4.65 10.626l-2.603-.258c-.089-.025-.784-.237-1.08-.953-.343-.835.18-1.573.21-1.613l1.787-1.78-.437-2.343c0-.092.008-.819.613-1.302.706-.563 1.561-.267 1.608-.25l2.369 1.307 2.6-1.375c.089-.024.795-.196 1.414.27.722.543.647 1.445.642 1.494l-.644 2.493 1.83 2.13c.043.08.368.731.05 1.438-.37.824-1.265.951-1.314.957Z"/></svg>
